<?xml version="1.0" encoding="utf-8"?>
<!-- Generator: Adobe Illustrator 16.0.0, SVG Export Plug-In . SVG Version: 6.00 Build 0)  -->
<!DOCTYPE svg PUBLIC "-//W3C//DTD SVG 1.1//EN" "http://www.w3.org/Graphics/SVG/1.1/DTD/svg11.dtd">
<svg version="1.1" id="Layer_1" xmlns="http://www.w3.org/2000/svg" xmlns:xlink="http://www.w3.org/1999/xlink" x="0px" y="0px"
	 width="742px" height="222px" viewBox="0 0 742 222" enable-background="new 0 0 742 222" xml:space="preserve">
<g>
	<path d="M93.748,65.712c9.936,0,17.985,3.44,24.153,10.259c6.167,6.814,9.282,14.541,9.282,23.177
		c0,8.762-3.115,16.557-9.347,23.371s-14.544,10.191-24.868,10.191H70.896v26.039H49.082V65.646H93.88L93.748,65.712z
		 M92.386,112.978c3.894,0,7.077-1.368,9.607-4.095c2.534-2.723,3.763-5.906,3.763-9.544c0-3.632-1.165-6.815-3.569-9.542
		c-2.402-2.727-5.387-4.088-8.958-4.088H70.765v27.33h21.556L92.386,112.978z"/>
	<path d="M167.568,160.692c-10.519,0-19.218-3.438-26.101-10.256c-6.881-6.817-10.325-15.32-10.325-25.515
		c0-10.191,3.444-18.697,10.325-25.516c6.883-6.814,15.582-10.256,26.101-10.256c10.515,0,19.216,3.373,26.096,10.188
		c6.882,6.821,10.324,15.323,10.324,25.521c0,10.188-3.441,18.697-10.324,25.512c-6.88,6.814-15.582,10.256-26.096,10.256V160.692z
		 M167.568,141.607c4.8,0,8.637-1.556,11.49-4.677c2.859-3.115,4.284-7.139,4.284-12.009c0-4.868-1.425-8.83-4.284-11.944
		c-2.853-3.121-6.69-4.674-11.49-4.674c-4.808,0-8.637,1.553-11.495,4.674c-2.851,3.114-4.284,7.076-4.284,11.944
		c0,4.87,1.433,8.826,4.284,11.944c2.857,3.117,6.687,4.673,11.495,4.673V141.607z"/>
	<circle fill="#FFFFFF" cx="564.714" cy="127.638" r="35.497"/>
	<circle fill="#FFFFFF" cx="642.005" cy="127.638" r="35.497"/>
	<path d="M237.229,99.988c2.012-3.697,4.868-6.49,8.503-8.309c3.635-1.817,7.857-2.402,12.727-1.817v19.933
		c-7.271-1.235-12.594-0.194-16.035,3.114c-3.441,3.315-5.13,9.153-5.13,17.53v28.31H216V90.965h21.294v9.156L237.229,99.988z"/>
	<path d="M316.304,156.54c-5.583,2.209-11.1,3.309-16.621,3.309c-7.986,0-13.956-2.273-17.98-6.814
		c-4.026-4.545-6.038-10.777-6.038-18.766v-24.732h-10.52V90.965h10.52V69.674h21.294v21.291h18.241v18.571H296.96v24.732
		c0,4.741,2.335,7.077,7.007,7.077c2.599,0,5.001-0.583,7.209-1.754L316.304,156.54z"/>
	<path d="M354.48,90.903h18.631v18.568H354.48v49.209h-21.293v-49.209h-12.338V90.903h12.338v-4.806
		c0-8.118,2.206-14.545,6.556-19.286c4.35-4.738,10.582-7.077,18.632-7.077c6.298,0,11.621,0.98,15.975,2.928l-5.068,16.879
		c-2.27-0.977-4.801-1.43-7.594-1.367c-2.209,0-3.962,0.718-5.259,2.146c-1.3,1.43-1.949,3.377-1.949,5.842V90.903z"/>
	<path d="M411.353,160.692c-10.519,0-19.218-3.438-26.1-10.256c-6.88-6.817-10.321-15.32-10.321-25.515
		c0-10.191,3.441-18.697,10.321-25.516c6.882-6.814,15.581-10.256,26.1-10.256s19.217,3.373,26.1,10.188
		c6.884,6.821,10.325,15.323,10.325,25.521c0,10.188-3.441,18.697-10.325,25.512c-6.883,6.814-15.581,10.256-26.1,10.256V160.692z
		 M411.353,141.607c4.805,0,8.636-1.556,11.492-4.677c2.857-3.115,4.283-7.139,4.283-12.009c0-4.868-1.426-8.83-4.283-11.944
		c-2.856-3.121-6.688-4.674-11.492-4.674c-4.804,0-8.634,1.553-11.489,4.674c-2.857,3.114-4.287,7.076-4.287,11.944
		c0,4.87,1.43,8.826,4.287,11.944c2.855,3.117,6.686,4.673,11.489,4.673V141.607z"/>
	<path d="M459.786,61.688h21.291v97.062h-21.291V61.688z"/>
	<path d="M507.311,83.047c-3.38,0-6.232-1.174-8.637-3.506c-2.403-2.341-3.572-5.193-3.572-8.573c0-3.31,1.235-6.101,3.639-8.374
		c2.399-2.268,5.256-3.441,8.632-3.441c3.378,0,6.232,1.174,8.637,3.51c2.4,2.338,3.636,5.129,3.636,8.377
		c0,3.369-1.169,6.229-3.572,8.566c-2.403,2.336-5.259,3.507-8.634,3.507L507.311,83.047z"/>
	<rect x="496.401" y="90.903" width="21.229" height="67.777"/>
	<path d="M564.271,165.539c-10.838-0.102-19.978-3.765-27.167-10.885c-7.273-7.206-10.961-16.307-10.961-27.05
		c0-10.742,3.688-19.847,10.961-27.052c7.291-7.225,16.586-10.885,27.62-10.885c11.084,0,20.376,3.642,27.625,10.816
		c7.274,7.213,10.962,16.311,10.962,27.053c0,10.746-3.688,19.847-10.962,27.053c-6.812,6.744-15.367,10.385-25.46,10.838v0.071
		L564.271,165.539z M562.377,160.28h2.348c9.623,0,17.687-3.155,23.969-9.375c6.258-6.199,9.427-14.064,9.427-23.368
		s-3.169-17.166-9.427-23.365c-6.237-6.18-14.303-9.313-23.969-9.313c-9.615,0-17.685,3.158-23.966,9.378
		c-6.254,6.198-9.426,14.058-9.426,23.367c0,9.308,3.172,17.167,9.426,23.362C546.524,156.679,553.789,159.803,562.377,160.28z"/>
	<path d="M642.133,165.539c-10.839-0.102-19.977-3.765-27.164-10.885c-7.273-7.206-10.964-16.307-10.964-27.05
		c0-10.742,3.69-19.847,10.964-27.052c7.289-7.225,16.584-10.885,27.62-10.885c11.084,0,20.376,3.642,27.622,10.816
		c7.275,7.213,10.963,16.311,10.963,27.053c0,10.746-3.688,19.847-10.963,27.053c-6.809,6.744-15.367,10.385-25.457,10.838v0.071
		L642.133,165.539z M640.236,160.28h2.353c9.621,0,17.684-3.155,23.972-9.375c6.25-6.199,9.422-14.064,9.422-23.368
		s-3.172-17.166-9.422-23.365c-6.242-6.18-14.308-9.313-23.972-9.313c-9.617,0-17.682,3.158-23.966,9.378
		c-6.256,6.198-9.426,14.058-9.426,23.367c0,9.308,3.17,17.167,9.426,23.362C624.387,156.679,631.65,159.803,640.236,160.28z"/>
	<path d="M559.402,102.441c-4.974,0-8.987,1.629-11.931,4.843c-2.997,3.269-4.456,7.338-4.456,12.446
		c0,5.102,1.459,9.178,4.455,12.44c2.944,3.213,6.958,4.843,11.932,4.843h0.461v0.064c4.763-0.096,8.619-1.722,11.473-4.84
		c2.954-3.219,4.455-7.431,4.455-12.508c0-5.104-1.461-9.178-4.455-12.446C568.391,104.07,564.376,102.441,559.402,102.441z"/>
	<path fill="#FFFFFF" d="M554.213,107.629c-1.331,0-2.403,0.438-3.19,1.297c-0.803,0.872-1.19,1.96-1.19,3.327
		c0,1.365,0.388,2.453,1.19,3.324c0.787,0.863,1.859,1.298,3.19,1.298h0.123v0.018c1.272-0.027,2.303-0.459,3.063-1.294
		c0.791-0.862,1.194-1.986,1.194-3.346c0-1.361-0.392-2.455-1.194-3.327C556.612,108.066,555.544,107.629,554.213,107.629z"/>
	<path d="M648.516,102.441c-4.973,0-8.986,1.629-11.929,4.843c-2.997,3.269-4.455,7.338-4.455,12.446
		c0,5.102,1.458,9.178,4.452,12.44c2.945,3.213,6.963,4.843,11.932,4.843h0.462v0.064c4.761-0.096,8.62-1.722,11.474-4.84
		c2.954-3.219,4.454-7.431,4.454-12.508c0-5.104-1.46-9.178-4.454-12.446C657.506,104.07,653.491,102.441,648.516,102.441z"/>
	<path fill="#FFFFFF" d="M651.979,107.629c-1.331,0-2.403,0.438-3.191,1.297c-0.8,0.872-1.192,1.96-1.192,3.327
		c0,1.365,0.393,2.453,1.192,3.324c0.788,0.863,1.86,1.298,3.191,1.298h0.123v0.018c1.275-0.027,2.305-0.459,3.068-1.294
		c0.786-0.862,1.187-1.986,1.187-3.346c0-1.361-0.388-2.455-1.187-3.327C654.382,108.066,653.307,107.629,651.979,107.629z"/>
	<path d="M550.463,81.784c-0.667,0-1.334-0.256-1.842-0.765c-1.008-1.013-1.008-2.652,0.006-3.668
		c0.608-0.613,15.176-14.934,31.249-9.262c1.353,0.478,2.061,1.959,1.583,3.313c-0.478,1.352-1.954,2.061-3.311,1.583
		c-12.962-4.581-25.729,7.915-25.855,8.041C551.788,81.528,551.124,81.784,550.463,81.784z"/>
	<path d="M661.116,70.693c-0.985,0-1.933-0.573-2.363-1.531c-6.802-15.111-23.191-11.667-23.888-11.513
		c-1.393,0.313-2.785-0.563-3.098-1.962c-0.313-1.399,0.559-2.785,1.954-3.1c0.21-0.05,21.205-4.578,29.764,14.442
		c0.587,1.306,0.005,2.847-1.302,3.433C661.837,70.619,661.476,70.693,661.116,70.693z"/>
	<g>
		<path d="M682.158,149.436c0.511,6.956,6.844,13.015,14.618,11.605c9.592-1.737,11.402-13.806,5.774-20.133
			c-1.833-2.061-6.039-4.425-9.02-4.425C685.112,136.482,681.683,142.956,682.158,149.436z"/>
		<path fill="#FFFFFF" d="M686.3,150.175c0.345,4.705,4.627,8.8,9.885,7.848c6.485-1.175,7.711-9.336,3.905-13.613
			c-1.24-1.394-4.084-2.992-6.099-2.992C688.298,141.417,685.979,145.793,686.3,150.175z"/>
	</g>
</g>
</svg>
